<?xml version="1.0" encoding="iso-8859-1"?>
<!-- Generator: Adobe Illustrator 19.0.0, SVG Export Plug-In . SVG Version: 6.00 Build 0)  -->
<svg version="1.1" id="Capa_1" xmlns="http://www.w3.org/2000/svg" xmlns:xlink="http://www.w3.org/1999/xlink" x="0px" y="0px"
	 viewBox="0 0 59 59" style="enable-background:new 0 0 59 59;" xml:space="preserve">
<g>
	<path style="fill:#745A49;" d="M54.259,50.265l-15.06-5.394c0.002-0.019-0.029-0.017-0.081-0.004
		c-0.04,0.149-0.07,0.302-0.118,0.448v0c-0.92,3.489-3.223,5.795-5.966,6.907l18.191,6.515c2.33,0.834,4.919-0.389,5.754-2.719
		C57.813,53.688,56.589,51.099,54.259,50.265z"/>
	<path style="fill:#745A49;" d="M19.124,45.564l-0.096-0.329l-14.045,5.03c-2.33,0.835-3.554,3.424-2.719,5.754
		s3.424,3.554,5.754,2.719l17.592-6.3C22.692,51.455,20.173,49.173,19.124,45.564z"/>
</g>
<circle style="fill:#D1A170;" cx="6.501" cy="54.499" r="4.5"/>
<circle style="fill:#D1A170;" cx="52.742" cy="54.499" r="4.5"/>
<path style="fill:#EBBA16;" d="M37.67,33.717c0,3.688-5.021,6.988-5.021,6.988c0-2.912-1.883-5.823-1.883-5.823
	c0,2.281-4.394,2.329-4.394,2.329c-1.961-1.65,0-6.211,0-6.211c-4.777,0.39-7.171,2.426-7.171,5.823c0,2.402,1.085,4,2.777,5.047
	L18,40.976l1,4.161l0.124,0.428C22.042,55.608,36.334,55.43,39,45.316l0,0v0C40.594,40.375,37.67,33.717,37.67,33.717z"/>
<path style="fill:#634B3E;" d="M12,55c-0.419,0-0.809-0.265-0.948-0.684c-0.175-0.524,0.108-1.09,0.632-1.265l6-2
	c0.527-0.175,1.091,0.109,1.265,0.632c0.175,0.524-0.108,1.09-0.632,1.265l-6,2C12.211,54.984,12.104,55,12,55z"/>
<path style="fill:#634B3E;" d="M11,52c-0.419,0-0.809-0.265-0.948-0.684c-0.175-0.524,0.108-1.09,0.632-1.265l3-1
	c0.528-0.176,1.09,0.109,1.265,0.632c0.175,0.524-0.108,1.09-0.632,1.265l-3,1C11.211,51.984,11.104,52,11,52z"/>
<path style="fill:#634B3E;" d="M47,55c-0.104,0-0.211-0.017-0.316-0.052l-6-2c-0.523-0.175-0.807-0.741-0.632-1.265
	c0.175-0.523,0.735-0.807,1.265-0.632l6,2c0.523,0.175,0.807,0.741,0.632,1.265C47.809,54.735,47.419,55,47,55z"/>
<path style="fill:#634B3E;" d="M48,52c-0.104,0-0.211-0.017-0.316-0.052l-3-1c-0.523-0.175-0.807-0.741-0.632-1.265
	c0.175-0.523,0.737-0.808,1.265-0.632l3,1c0.523,0.175,0.807,0.741,0.632,1.265C48.809,51.735,48.419,52,48,52z"/>
<line style="fill:none;stroke:#6C4127;stroke-width:2;stroke-linecap:round;stroke-miterlimit:10;" x1="2" y1="4" x2="28" y2="4"/>
<path style="fill:#38454F;" d="M40.833,13c0,1.657-5.252,3-11.833,3s-12-1.343-12-3s5.419-3,12-3S40.833,11.343,40.833,13z"/>
<circle style="fill:#EBBA16;" cx="41" cy="30" r="1"/>
<circle style="fill:#EBBA16;" cx="44" cy="34" r="1"/>
<circle style="fill:#EBBA16;" cx="44" cy="41" r="1"/>
<circle style="fill:#EBBA16;" cx="16" cy="30" r="1"/>
<circle style="fill:#EBBA16;" cx="16" cy="35" r="1"/>
<circle style="fill:#EBBA16;" cx="13" cy="40" r="1"/>
<circle style="fill:#EBBA16;" cx="33" cy="32" r="1"/>
<g>
	<path style="fill:#6C4127;" d="M7.293,0.293L5,2.586L2.707,0.293c-0.391-0.391-1.023-0.391-1.414,0s-0.391,1.023,0,1.414L4,4.414
		V50c0,0.552,0.447,1,1,1s1-0.448,1-1V4.414l2.707-2.707c0.391-0.391,0.391-1.023,0-1.414S7.684-0.098,7.293,0.293z"/>
	<path style="fill:#6C4127;" d="M57.707,0.293c-0.391-0.391-1.023-0.391-1.414,0L54,2.586l-2.293-2.293
		c-0.391-0.391-1.023-0.391-1.414,0s-0.391,1.023,0,1.414L53,4.414V50c0,0.552,0.447,1,1,1s1-0.448,1-1V4.414l2.707-2.707
		C58.098,1.316,58.098,0.684,57.707,0.293z"/>
</g>
<g>
	<path style="fill:#546A79;" d="M40.752,13.339C40.092,14.836,35.125,16,29,16c-6.095,0-11.181-1.153-11.901-2.639
		c-0.007,0-0.013,0.001-0.02,0.001c-0.008,0-0.016-0.001-0.024-0.001c-0.016,0.162-0.026,0.194-0.022,0.218l1.714,8.568
		C19.427,25.55,22.415,28,25.885,28h6.062c3.471,0,6.459-2.45,7.139-5.853l1.714-8.568c0.005-0.025-0.007-0.055-0.024-0.238
		C40.769,13.34,40.76,13.34,40.752,13.339z"/>
</g>
<path style="fill:none;stroke:#546A79;stroke-width:2;stroke-linecap:round;stroke-miterlimit:10;" d="M35,10.411V7c0-3.3-2.7-6-6-6
	s-6,2.7-6,6v8.592"/>
<line style="fill:none;stroke:#6C4127;stroke-width:2;stroke-linecap:round;stroke-miterlimit:10;" x1="28" y1="4" x2="57" y2="4"/>
<g>
</g>
<g>
</g>
<g>
</g>
<g>
</g>
<g>
</g>
<g>
</g>
<g>
</g>
<g>
</g>
<g>
</g>
<g>
</g>
<g>
</g>
<g>
</g>
<g>
</g>
<g>
</g>
<g>
</g>
</svg>
