<svg xmlns="http://www.w3.org/2000/svg" height="590pt" version="1.1" viewBox="0 -69 590.46 590" width="590pt">
<g id="surface1">
<path d="M 183.105469 66.855469 L 171.570312 38.015625 C 165.832031 23.675781 155.882812 11.40625 143.023438 2.839844 C 135.761719 -2.011719 125.945312 -0.046875 121.101562 7.203125 C 116.910156 13.480469 117.746094 21.851562 123.085938 27.183594 C 128.957031 33.050781 132.242188 41.007812 132.242188 49.308594 L 132.242188 77.027344 Z M 183.105469 66.855469 " style=" stroke:none;fill-rule:nonzero;fill:rgb(87.843137%,30.588235%,17.647059%);fill-opacity:1;" />
<path d="M 0 283.527344 L 0 388.304688 C 0 396.167969 6.378906 402.546875 14.242188 402.546875 L 575.757812 402.546875 C 583.621094 402.546875 590 396.167969 590 388.304688 L 590 280.476562 L 0.0507812 280.476562 C 0 281.554688 0 282.613281 0 283.527344 Z M 0 283.527344 " style=" stroke:none;fill-rule:nonzero;fill:rgb(26.27451%,58.039216%,80%);fill-opacity:1;" />
<path d="M 528.964844 138.0625 L 84.683594 138.0625 C 58.417969 138.054688 35.09375 154.859375 26.773438 179.769531 L 4.179688 247.597656 C 1.585938 258.371094 0.191406 269.398438 0.0507812 280.476562 L 590 280.476562 L 590 199.097656 C 590 165.394531 562.675781 138.0625 528.964844 138.0625 Z M 528.964844 138.0625 " style=" stroke:none;fill-rule:nonzero;fill:rgb(87.058824%,84.313725%,82.745098%);fill-opacity:1;" />
<path d="M 305.171875 97.375 L 508.621094 97.375 C 508.609375 85.59375 500.1875 75.503906 488.601562 73.386719 C 427.476562 62.277344 365.476562 56.683594 303.34375 56.683594 L 307.003906 56.683594 C 244.871094 56.683594 182.871094 62.277344 121.746094 73.386719 C 110.160156 75.503906 101.734375 85.59375 101.726562 97.375 Z M 305.171875 97.375 " style=" stroke:none;fill-rule:nonzero;fill:rgb(92.941176%,35.294118%,17.647059%);fill-opacity:1;" />
<path d="M 203.449219 97.375 L 223.792969 97.375 L 223.792969 138.0625 L 203.449219 138.0625 Z M 203.449219 97.375 " style=" stroke:none;fill-rule:nonzero;fill:rgb(94.117647%,92.54902%,91.372549%);fill-opacity:1;" />
<path d="M 366.207031 97.375 L 386.550781 97.375 L 386.550781 138.0625 L 366.207031 138.0625 Z M 366.207031 97.375 " style=" stroke:none;fill-rule:nonzero;fill:rgb(94.117647%,92.54902%,91.372549%);fill-opacity:1;" />
<path d="M 183.105469 402.546875 L 40.6875 402.546875 L 48.371094 348.804688 C 49.804688 338.785156 58.390625 331.339844 68.511719 331.339844 L 155.28125 331.339844 C 165.402344 331.339844 173.988281 338.785156 175.421875 348.804688 Z M 183.105469 402.546875 " style=" stroke:none;fill-rule:nonzero;fill:rgb(16.470588%,40.392157%,61.176471%);fill-opacity:1;" />
<path d="M 518.792969 402.546875 L 376.378906 402.546875 L 384.058594 348.804688 C 385.492188 338.785156 394.078125 331.339844 404.199219 331.339844 L 490.972656 331.339844 C 501.09375 331.339844 509.679688 338.785156 511.113281 348.804688 Z M 518.792969 402.546875 " style=" stroke:none;fill-rule:nonzero;fill:rgb(16.470588%,40.392157%,61.176471%);fill-opacity:1;" />
<path d="M 518.792969 188.925781 L 559.484375 188.925781 L 559.484375 209.269531 L 518.792969 209.269531 Z M 518.792969 188.925781 " style=" stroke:none;fill-rule:nonzero;fill:rgb(64.313725%,69.019608%,74.901961%);fill-opacity:1;" />
<path d="M 518.792969 229.613281 L 559.484375 229.613281 L 559.484375 249.960938 L 518.792969 249.960938 Z M 518.792969 229.613281 " style=" stroke:none;fill-rule:nonzero;fill:rgb(64.313725%,69.019608%,74.901961%);fill-opacity:1;" />
<path d="M 194.457031 178.753906 L 303.992188 178.753906 C 310.257812 178.753906 315.34375 183.839844 315.34375 190.105469 L 315.34375 228.433594 C 315.34375 234.699219 310.257812 239.785156 303.992188 239.785156 L 194.457031 239.785156 C 188.191406 239.785156 183.105469 234.699219 183.105469 228.433594 L 183.105469 190.105469 C 183.105469 183.839844 188.191406 178.753906 194.457031 178.753906 Z M 194.457031 178.753906 " style=" stroke:none;fill-rule:nonzero;fill:rgb(26.27451%,58.039216%,80%);fill-opacity:1;" />
<path d="M 367.386719 178.753906 L 476.925781 178.753906 C 483.191406 178.753906 488.277344 183.839844 488.277344 190.105469 L 488.277344 228.433594 C 488.277344 234.699219 483.191406 239.785156 476.925781 239.785156 L 367.386719 239.785156 C 361.121094 239.785156 356.035156 234.699219 356.035156 228.433594 L 356.035156 190.105469 C 356.035156 183.839844 361.121094 178.753906 367.386719 178.753906 Z M 367.386719 178.753906 " style=" stroke:none;fill-rule:nonzero;fill:rgb(26.27451%,58.039216%,80%);fill-opacity:1;" />
<path d="M 142.414062 228.433594 L 142.414062 190.105469 C 142.414062 183.839844 137.328125 178.753906 131.0625 178.753906 L 27.222656 178.753906 C 27.089844 179.109375 26.894531 179.433594 26.773438 179.769531 L 6.785156 239.785156 L 131.0625 239.785156 C 137.328125 239.785156 142.414062 234.710938 142.414062 228.433594 Z M 142.414062 228.433594 " style=" stroke:none;fill-rule:nonzero;fill:rgb(26.27451%,58.039216%,80%);fill-opacity:1;" />
<path d="M 131.0625 178.753906 L 111.894531 178.753906 L 50.863281 239.785156 L 131.0625 239.785156 C 137.328125 239.785156 142.414062 234.699219 142.414062 228.433594 L 142.414062 190.105469 C 142.414062 183.839844 137.328125 178.753906 131.0625 178.753906 Z M 131.0625 178.753906 " style=" stroke:none;fill-rule:nonzero;fill:rgb(24.313725%,53.72549%,74.117647%);fill-opacity:1;" />
<path d="M 303.992188 178.753906 L 284.828125 178.753906 L 223.792969 239.785156 L 303.992188 239.785156 C 310.257812 239.785156 315.34375 234.699219 315.34375 228.433594 L 315.34375 190.105469 C 315.34375 183.839844 310.257812 178.753906 303.992188 178.753906 Z M 303.992188 178.753906 " style=" stroke:none;fill-rule:nonzero;fill:rgb(24.313725%,53.72549%,74.117647%);fill-opacity:1;" />
<path d="M 476.921875 178.753906 L 457.757812 178.753906 L 396.722656 239.785156 L 476.921875 239.785156 C 483.1875 239.785156 488.273438 234.699219 488.273438 228.433594 L 488.273438 190.105469 C 488.277344 183.839844 483.191406 178.753906 476.921875 178.753906 Z M 476.921875 178.753906 " style=" stroke:none;fill-rule:nonzero;fill:rgb(24.313725%,53.72549%,74.117647%);fill-opacity:1;" />
<path d="M 0 351.683594 L 0 388.304688 C 0 396.167969 6.378906 402.546875 14.242188 402.546875 L 40.6875 402.546875 L 47.953125 351.683594 Z M 0 351.683594 " style=" stroke:none;fill-rule:nonzero;fill:rgb(87.058824%,84.313725%,82.745098%);fill-opacity:1;" />
<path d="M 511.53125 351.683594 L 518.792969 402.546875 L 575.757812 402.546875 C 583.621094 402.546875 590 396.167969 590 388.304688 L 590 351.683594 Z M 511.53125 351.683594 " style=" stroke:none;fill-rule:nonzero;fill:rgb(87.058824%,84.313725%,82.745098%);fill-opacity:1;" />
<path d="M 162.757812 402.546875 C 162.757812 430.636719 139.988281 453.410156 111.898438 453.410156 C 83.804688 453.410156 61.035156 430.636719 61.035156 402.546875 C 61.035156 374.457031 83.804688 351.683594 111.898438 351.683594 C 139.988281 351.683594 162.757812 374.457031 162.757812 402.546875 Z M 162.757812 402.546875 " style=" stroke:none;fill-rule:nonzero;fill:rgb(47.45098%,55.294118%,63.137255%);fill-opacity:1;" />
<path d="M 132.242188 402.546875 C 132.242188 413.78125 123.132812 422.890625 111.898438 422.890625 C 100.660156 422.890625 91.550781 413.78125 91.550781 402.546875 C 91.550781 391.308594 100.660156 382.199219 111.898438 382.199219 C 123.132812 382.199219 132.242188 391.308594 132.242188 402.546875 Z M 132.242188 402.546875 " style=" stroke:none;fill-rule:nonzero;fill:rgb(87.058824%,84.313725%,82.745098%);fill-opacity:1;" />
<path d="M 498.449219 402.546875 C 498.449219 430.636719 475.675781 453.410156 447.585938 453.410156 C 419.496094 453.410156 396.722656 430.636719 396.722656 402.546875 C 396.722656 374.457031 419.496094 351.683594 447.585938 351.683594 C 475.675781 351.683594 498.449219 374.457031 498.449219 402.546875 Z M 498.449219 402.546875 " style=" stroke:none;fill-rule:nonzero;fill:rgb(47.45098%,55.294118%,63.137255%);fill-opacity:1;" />
<path d="M 467.929688 402.546875 C 467.929688 413.78125 458.820312 422.890625 447.585938 422.890625 C 436.347656 422.890625 427.242188 413.78125 427.242188 402.546875 C 427.242188 391.308594 436.347656 382.199219 447.585938 382.199219 C 458.820312 382.199219 467.929688 391.308594 467.929688 402.546875 Z M 467.929688 402.546875 " style=" stroke:none;fill-rule:nonzero;fill:rgb(87.058824%,84.313725%,82.745098%);fill-opacity:1;" />
</g>
</svg>