<?xml version="1.0" encoding="iso-8859-1"?>
<!-- Generator: Adobe Illustrator 21.0.0, SVG Export Plug-In . SVG Version: 6.00 Build 0)  -->
<svg version="1.1" id="Capa_1" xmlns="http://www.w3.org/2000/svg" xmlns:xlink="http://www.w3.org/1999/xlink" x="0px" y="0px"
	 viewBox="0 0 512 512" style="enable-background:new 0 0 512 512;" xml:space="preserve">
<rect x="242.608" y="112.928" style="fill:#F8D46E;" width="28.845" height="169.733"/>
<path style="fill:#F7C852;" d="M271.453,112.927H257.03h-14.423v47.436v122.298h14.423V174.786c0-7.965,6.457-14.423,14.423-14.423
	l0,0V112.927z"/>
<path style="fill:#EE8E3E;" d="M404.346,278.376V493.23c0,10.364-8.406,18.77-18.77,18.77H126.424
	c-10.364,0-18.77-8.406-18.77-18.77V278.376c0-10.364,8.406-18.77,18.77-18.77h259.152
	C395.94,259.606,404.346,268.012,404.346,278.376z"/>
<path style="fill:#EA8032;" d="M167.005,473.368c-10.364,0-18.77-8.406-18.77-18.77V259.606h-21.811
	c-10.364,0-18.77,8.406-18.77,18.77V493.23c0,10.364,8.406,18.77,18.77,18.77h259.152c10.364,0,18.77-8.406,18.77-18.77v-19.862
	H167.005z"/>
<path style="fill:#F8D46E;" d="M373.441,296.646V474.96c0,3.388-2.746,6.135-6.135,6.135H144.694c-3.388,0-6.135-2.746-6.135-6.135
	V296.646c0-3.388,2.746-6.135,6.135-6.135h222.612C370.694,290.511,373.441,293.258,373.441,296.646z"/>
<path style="fill:#F9BD38;" d="M253.044,461.712c-50.143,0-90.791-40.649-90.791-90.791v-80.41h-17.559
	c-3.388,0-6.135,2.746-6.135,6.135V474.96c0,3.388,2.746,6.135,6.135,6.135h222.612c3.388,0,6.135-2.746,6.135-6.135v-13.248
	H253.044z"/>
<g>
	<circle style="fill:#E0B13B;" cx="350.262" cy="314.72" r="9.272"/>
	<circle style="fill:#E0B13B;" cx="163.799" cy="314.72" r="9.272"/>
	<circle style="fill:#E0B13B;" cx="350.262" cy="456.885" r="9.272"/>
	<circle style="fill:#E0B13B;" cx="163.799" cy="456.885" r="9.272"/>
	<path style="fill:#E0B13B;" d="M312.145,328.381v47.934c0,4.43-2.442,8.499-6.356,10.58l-36.963,19.666v6.696
		c0,1.751-1.422,3.183-3.183,3.183h-17.606c-1.751,0-3.183-1.432-3.183-3.183V399.36c0-4.43,2.452-8.499,6.356-10.58l36.973-19.666
		v-28.752h-57.154v18.203c0,1.659-1.339,2.998-2.998,2.998h-17.966c-1.659,0-2.998-1.339-2.998-2.998v-30.184
		c0-6.614,5.367-11.981,11.981-11.981h81.116C306.778,316.4,312.145,321.767,312.145,328.381z"/>
	<path style="fill:#E0B13B;" d="M268.826,441.773v15.803c0,2.462-1.999,4.461-4.471,4.461h-15.03c-2.472,0-4.471-1.999-4.471-4.461
		v-15.803c0-2.462,1.999-4.461,4.471-4.461h15.03C266.827,437.312,268.826,439.31,268.826,441.773z"/>
</g>
<path style="fill:#FE4583;" d="M314.72,0c37.55,0,67.992,30.442,67.992,67.992c0,18.77-7.613,35.768-19.913,48.079
	c-12.311,12.3-29.309,19.913-48.079,19.913H199.34c-37.55,0-67.992-30.442-67.992-67.992c0-18.77,7.613-35.768,19.913-48.079
	C163.572,7.613,180.57,0,199.34,0H314.72z"/>
<path style="fill:#FC3268;" d="M342.536,118.471h-115.38c-37.55,0-67.992-30.442-67.992-67.992c0-18.276,7.232-34.859,18.967-47.084
	c-10.24,3.361-19.417,9.074-26.869,16.519c-12.3,12.311-19.913,29.309-19.913,48.079c0,37.55,30.442,67.992,67.992,67.992h115.38
	c18.77,0,35.768-7.613,48.079-19.913c0.323-0.323,0.629-0.663,0.947-0.993C357.069,117.269,349.944,118.471,342.536,118.471z"/>
<path style="fill:#FECF54;" d="M314.72,31.936c19.882,0,36.056,16.174,36.056,36.056s-16.174,36.056-36.056,36.056H199.34
	c-19.882,0-36.056-16.174-36.056-36.056s16.174-36.056,36.056-36.056H314.72z"/>
<path style="fill:#F9BD38;" d="M324.507,92.201h-115.38c-19.882,0-36.056-16.174-36.056-36.056c0-5.937,1.452-11.538,4.003-16.482
	c-8.389,6.608-13.79,16.846-13.79,28.329c0,19.882,16.174,36.056,36.056,36.056h115.38c13.946,0,26.057-7.962,32.053-19.574
	C340.638,89.306,332.906,92.201,324.507,92.201z"/>
<path style="fill:#4ACE99;" d="M314.72,79.839H199.34c-6.532,0-11.847-5.315-11.847-11.847s5.315-11.847,11.847-11.847h115.38
	c6.532,0,11.847,5.315,11.847,11.847S321.253,79.839,314.72,79.839z"/>
<g>
	<path style="fill:#B2D66C;" d="M340.475,207.749v16.047c0,19.776-16.033,35.809-35.809,35.809h-33.213v-19.821
		c0-19.776,16.033-35.809,35.809-35.809h29.439C338.785,203.976,340.475,205.665,340.475,207.749z"/>
	<path style="fill:#B2D66C;" d="M242.608,239.785v19.821h-33.213c-19.776,0-35.809-16.033-35.809-35.809v-16.047
		c0-2.084,1.689-3.774,3.774-3.774h29.439C226.575,203.976,242.608,220.009,242.608,239.785z"/>
</g>
<g>
	<path style="fill:#8FD650;" d="M329.926,203.976h-22.664c-19.776,0-35.809,16.033-35.809,35.809v19.821h22.664v-19.821
		C294.117,220.009,310.149,203.976,329.926,203.976z"/>
	<path style="fill:#8FD650;" d="M196.249,223.797v-16.047c0-2.084,1.689-3.774,3.774-3.774h-22.664
		c-2.084,0-3.774,1.689-3.774,3.774v16.047c0,19.777,16.033,35.809,35.809,35.809h22.664
		C212.282,259.606,196.249,243.574,196.249,223.797z"/>
</g>
<g>
</g>
<g>
</g>
<g>
</g>
<g>
</g>
<g>
</g>
<g>
</g>
<g>
</g>
<g>
</g>
<g>
</g>
<g>
</g>
<g>
</g>
<g>
</g>
<g>
</g>
<g>
</g>
<g>
</g>
</svg>
